<svg width="52" height="52" viewBox="0 0 52 52" fill="none" xmlns="http://www.w3.org/2000/svg">
<g id="noun-digital-2995235 1">
<g id="Group">
<path id="Vector" d="M17.8879 19.5105L19.8846 18.5953V9.15208C19.8846 8.61119 19.427 8.15361 18.8862 8.15361L14.3936 8.1539C13.9775 6.5315 12.4798 5.3667 10.7327 5.3667C8.61119 5.3667 6.90552 7.07237 6.90552 9.15237C6.90552 11.2739 8.61119 12.9796 10.7327 12.9796C12.4799 12.9796 13.936 11.7733 14.3936 10.1509H17.8879V19.5105Z" fill="#B65AB6"/>
<path id="Vector_2" d="M25.0016 8.52811V16.3073C25.3344 16.224 25.6672 16.1825 26.0001 16.1825C26.3329 16.1825 26.6657 16.224 26.9985 16.3073V8.52811C28.6209 8.0705 29.7857 6.61436 29.7857 4.86724C29.7857 2.74571 28.0801 1.04004 26.0001 1.04004C23.8785 1.04004 22.1729 2.74571 22.1729 4.86724C22.1729 6.61444 23.3791 8.07051 25.0015 8.52811H25.0016Z" fill="#B65AB6"/>
<path id="Vector_3" d="M41.2672 5.32503C39.52 5.32503 38.0639 6.53128 37.6063 8.11223H33.1137C32.5728 8.11223 32.1152 8.56984 32.1152 9.1107V18.5539L34.112 19.4691V10.1507H37.6063C38.0639 11.7731 39.52 12.9794 41.2672 12.9794C43.3887 12.9794 45.0944 11.2737 45.0944 9.15215C45.0944 7.03063 43.3887 5.32495 41.2672 5.32495V5.32503Z" fill="#B65AB6"/>
<path id="Vector_4" d="M15.7664 35.6512C15.7664 36.1503 16.0577 36.6497 16.5568 36.8575L24.7104 40.6013V28.5789L15.808 24.5022V35.651L15.7664 35.6512Z" fill="#B65AB6"/>
<path id="Vector_5" d="M26.5407 18.5954C26.2079 18.4291 25.792 18.4291 25.4592 18.5954L17.3472 22.2978L26 26.2497L34.6528 22.2978L26.5407 18.5954Z" fill="#B65AB6"/>
<path id="Vector_6" d="M27.3311 40.5602L35.4847 36.8164C35.9423 36.6083 36.2751 36.1507 36.2751 35.6101L36.2748 24.5029L27.3724 28.5797V40.5605L27.3311 40.5602Z" fill="#B65AB6"/>
</g>
</g>
</svg>
